<svg t="1711352845544" class="icon" viewBox="0 0 1024 1024" version="1.1" xmlns="http://www.w3.org/2000/svg" p-id="9794" data-spm-anchor-id="a313x.search_index.0.i3.1b433a81hRwYXE" width="48" height="48">
  <path d="M102.2 459.8c20.5 0 37.2 17.4 37.2 38.9v155.4c0 21.4-16.7 38.9-37.2 38.9-20.5 0-37.2-17.5-37.2-38.9V498.3c0-21 16.7-38.5 37.2-38.5z m818.9 0c20.5 0 37.2 17.4 37.2 38.9v155.4c0 21.4-16.7 38.9-37.2 38.9-20.5 0-37.2-17.4-37.2-38.9V498.7c0-21.4 16.7-38.9 37.2-38.9zM755.2 926.9h-487c-60.9 0-109.9-56.3-109.9-125.3V373.4c0-69.4 49.4-125.3 109.9-125.3h206.3s0.3 0 0.3-0.4v-63.4s0-0.4-0.3-0.4h-35.8c-19.5 0-36.5-16.3-38.3-38.5-2.1-25 15.3-46.4 36.9-46.4h147.5c19.5 0 36.5 16.3 38.3 38.5 2.1 25-15.3 46.4-36.9 46.4H549v63.4s0 0.4 0.3 0.4h206c60.9 0 109.9 56.3 109.9 125.3v428.2c0.3 69.4-49.1 125.7-110 125.7z m0 0" fill="#3f6600" p-id="9795" data-spm-anchor-id="a313x.search_index.0.i0.1b433a81hRwYXE" class="selected"></path>
  <path d="M102.2 459.8c20.5 0 37.2 17.4 37.2 38.9v155.4c0 21.4-16.7 38.9-37.2 38.9-20.5 0-37.2-17.5-37.2-38.9V498.3c0-21 16.7-38.5 37.2-38.5z m818.9 0c20.5 0 37.2 17.4 37.2 38.9v155.4c0 21.4-16.7 38.9-37.2 38.9-20.5 0-37.2-17.4-37.2-38.9V498.7c0-21.4 16.7-38.9 37.2-38.9z m0 0" fill="#3f6600" p-id="9796" data-spm-anchor-id="a313x.search_index.0.i4.1b433a81hRwYXE" class="selected"></path>
  <path d="M651.2 650.9c35.8 0 65.1-33.3 65.1-74.1s-29.2-74.2-65.1-74.2c-35.8 0-65.1 33.3-65.1 74.2 0 40.8 29.2 74.1 65.1 74.1z m-279 0c35.8 0 65.1-33.3 65.1-74.1s-29.2-74.2-65.1-74.2-65.1 33.3-65.1 74.2c-0.3 40.8 28.9 74.1 65.1 74.1z m0 0" fill="#FFFFFF" p-id="9797"></path>
</svg>